<?xml version="1.0" standalone="no"?>
<!DOCTYPE svg PUBLIC "-//W3C//DTD SVG 20010904//EN"
 "http://www.w3.org/TR/2001/REC-SVG-20010904/DTD/svg10.dtd">
<svg version="1.0" xmlns="http://www.w3.org/2000/svg"
 width="32.000000pt" height="32.000000pt" viewBox="0 0 32.000000 32.000000"
 preserveAspectRatio="xMidYMid meet">

<g transform="translate(0.000000,32.000000) scale(0.100000,-0.100000)"
fill="#000000" stroke="none">
<path d="M113 202 c-35 -21 -63 -39 -63 -42 0 -5 107 -68 134 -79 5 -2 7 8 4
23 l-5 26 42 -24 c23 -14 45 -22 49 -19 14 14 4 31 -29 49 -19 10 -35 21 -35
24 0 3 16 14 35 24 33 18 43 35 29 49 -4 3 -26 -5 -49 -19 l-42 -24 5 25 c6
32 0 31 -75 -13z m43 -27 c-20 -15 -20 -15 0 -30 18 -14 17 -14 -8 -4 -34 15
-35 23 -5 37 31 15 35 14 13 -3z"/>
</g>
</svg>
