<?xml version="1.0" standalone="no"?>
<!DOCTYPE svg PUBLIC "-//W3C//DTD SVG 20010904//EN"
 "http://www.w3.org/TR/2001/REC-SVG-20010904/DTD/svg10.dtd">
<svg version="1.0" xmlns="http://www.w3.org/2000/svg"
 width="512.000000pt" height="512.000000pt" viewBox="0 0 512.000000 512.000000"
 preserveAspectRatio="xMidYMid meet">

<g transform="translate(0.000000,512.000000) scale(0.100000,-0.100000)"
fill="#000000" stroke="none">
<path d="M785 3818 c-54 -29 -55 -34 -55 -305 l0 -253 28 -29 c15 -16 259
-163 542 -326 283 -164 521 -302 528 -307 6 -6 12 -23 12 -39 0 -36 34 -15
-565 -359 -269 -155 -502 -295 -517 -311 l-28 -29 0 -251 c0 -152 4 -258 10
-270 15 -27 68 -51 104 -47 18 2 419 227 956 538 509 293 965 557 1013 584 49
28 99 61 112 74 40 39 40 105 0 144 -12 11 -282 171 -601 355 -318 184 -777
449 -1020 589 -446 257 -471 269 -519 242z"/>
<path d="M2162 3814 c-48 -33 -52 -57 -52 -299 0 -265 2 -274 83 -322 28 -18
270 -158 537 -312 300 -173 488 -288 494 -300 5 -13 5 -29 0 -41 -6 -13 -217
-140 -544 -329 -462 -266 -537 -313 -552 -342 -16 -30 -18 -65 -18 -264 0
-212 2 -233 20 -263 21 -34 54 -52 97 -52 15 0 200 101 452 246 234 136 692
400 1016 586 325 187 602 353 618 369 20 22 27 39 27 69 0 30 -7 47 -27 69
-16 16 -248 156 -518 312 -269 155 -727 418 -1016 585 -553 319 -565 325 -617
288z"/>
</g>
</svg>
